<?xml version="1.0" encoding="utf-8"?>
<!-- Generator: Adobe Illustrator 18.0.0, SVG Export Plug-In . SVG Version: 6.00 Build 0)  -->
<!DOCTYPE svg PUBLIC "-//W3C//DTD SVG 1.1//EN" "http://www.w3.org/Graphics/SVG/1.1/DTD/svg11.dtd">
<svg version="1.1" id="Capa_1" xmlns="http://www.w3.org/2000/svg" xmlns:xlink="http://www.w3.org/1999/xlink" x="0px" y="0px"
	 viewBox="0 0 396.9 396.9" enable-background="new 0 0 396.9 396.9" xml:space="preserve">
<g>
	<g>
		<g>
			<path fill="#00313E" d="M284,235.9c-31.1-21-67.9-53.3-71.7-90.4c5.9-33.8,39.4-63,68-82.2c1.2-0.8,5.4-23.3,5-24.7
				c-0.4-1.4-1.7-2.6-3.2-2.6H115.3c-1.5,0-2.7,1.2-3.2,2.6c-0.4,1.4,3.9,23.8,5,24.6c28.6,19.3,62.1,48.6,68,82.3
				c-3.8,37.2-40.6,69.5-71.7,90.5c-1.2,0.8-1.7,2.4-1.3,3.8c0.4,1.4,3.3,11.1,3.8,12.5c0.4,1.3,1.6,2.7,3,2.7h159.6
				c1.4,0,2.6-1.4,3-2.7c0.4-1.3,3.3-11,3.8-12.4C285.8,238.5,285.2,236.7,284,235.9z"/>
			<path fill="#00313E" d="M333.1,74.4c-0.6-0.4-1.2-0.5-2.2-0.5v-0.3c0,0.1,0.1,0.1,0,0.2c0,0-0.2,0.2-0.8,0.5c0,0,0,0,0,0l0,0
				c-0.1,0.1-0.3,0.1-0.4,0.2c-2.1,0.9-15.4,7.2-28.9,17.6c-17.3,13.2-27.2,27-29.4,41c-0.3,2-3.6,17.5-3.6,22.6
				c0,36.3,54.2,61,56.5,62l0.2,0.1c0.4,0.2,0.9,0.3,1.4,0.3c0.6,0,1.2-0.2,1.7-0.5c0.9-0.6,7.3-15.4,7.3-16.6V77.3
				C335,76.1,334.1,75,333.1,74.4z"/>
			<path fill="#00313E" d="M129.7,155.8c0-5.3-3.4-22.1-4-24.8c-7.2-33.4-55.9-55.6-58.2-56.6c-0.1,0-0.1-0.1-0.2-0.1
				c-1-0.5-2.5-0.4-3.5,0.2c-1,0.6-1.8,1.7-1.8,2.8v123.9c0,1.1,6.7,16,7.6,16.5c0.5,0.3,1.2,0.5,1.8,0.5c0.5,0,1-0.1,1.5-0.3
				c0.1,0,0.2-0.1,0.3-0.1c0.6-0.3,14.2-6.4,28-16.9C120.1,186.3,129.7,171.2,129.7,155.8z"/>
		</g>
		<path fill="#4A7EB5" d="M284,235.9c-32.9-22.1-72-56.9-72-96.7s39.2-74.6,72-96.7c1.2-0.8,1.7-2.5,1.3-3.9
			c-0.4-1.4-1.7-2.6-3.2-2.6H115.3c-1.5,0-2.7,1.2-3.2,2.6c-0.4,1.4,0.1,3.1,1.3,3.9c32.9,22.1,72,57,72,96.8
			c0,39.8-39.2,74.6-72,96.8c-1.2,0.8-1.7,2.2-1.3,3.6c0.4,1.4,1.7,2.3,3.2,2.3h166.9c1.5,0,2.7-1,3.2-2.3
			C285.8,238.2,285.2,236.7,284,235.9z"/>
		<path fill="#6398C7" d="M333.1,74.4c-0.6-0.4-1.2-0.5-2.2-0.5v-0.3c0,0.1,0.1,0.1,0,0.2c0,0-0.2,0.2-0.8,0.5c0,0,0,0,0,0l0,0
			c-0.1,0.1-0.3,0.1-0.4,0.2c-2.1,0.9-15.4,7.2-28.9,17.6c-19.8,15.1-29.8,31-29.8,47.1c0,37.9,56.6,63.7,59.1,64.8l0.2,0.1
			c0.5,0.2,1,0.4,1.5,0.4c0.6,0,1.2-0.2,1.7-0.5c1-0.6,1.5-1.7,1.5-2.8V77.3C335,76.1,334.1,75,333.1,74.4z"/>
		<path fill="#4A7EB5" d="M67.5,74.4c-0.1,0-0.1-0.1-0.2-0.1c-1-0.5-2.5-0.4-3.5,0.2c-1,0.6-1.8,1.7-1.8,2.8v123.9
			c0,1.1,0.8,2.2,1.8,2.8c0.5,0.3,1.2,0.5,1.8,0.5c0.5,0,1.1-0.1,1.5-0.3c0.1,0,0.2-0.1,0.3-0.2c0.6-0.3,14.8-6.7,29.2-17.7
			c19.8-15.1,29.9-31,29.9-47.1C126.5,101.3,69.9,75.5,67.5,74.4z"/>
		<path fill="#6398C7" d="M184,152.8c-7.5,34.1-41.5,63.6-70.5,83.2c-1.2,0.8-1.7,2.2-1.3,3.6c0.4,1.4,1.7,2.3,3.2,2.3h166.9
			c1.5,0,2.7-1,3.2-2.3c0.4-1.4-0.1-3-1.3-3.8c-32.9-22.1-72-56.8-72-96.7c0-1.8,0.1-3.5,0.2-5.2L184,152.8z"/>
		<path opacity="0.5" fill="#80B4DB" d="M335,77.3c0-1.1-0.9-2.2-1.8-2.8c-0.6-0.4-1.2-0.5-2.2-0.5v-0.3c0,0.1,0.1,0.1,0,0.2
			c0,0-0.2,0.2-0.8,0.5c0,0,0,0,0,0l0,0c-0.1,0.1-0.3,0.1-0.4,0.2c-2.1,0.9-15.4,7.2-28.9,17.6c-19.8,15.1-29.8,31-29.8,47.1
			c0,10.1,4,19.3,9.9,27.4c16.3-13.3,33.1-26,54.1-37.2V77.3z"/>
		<path opacity="0.5" fill="#80B4DB" d="M212,139.2c0-14.1,4.9-27.5,12.6-39.9c-14.1,6.9-28.1,14.3-41.7,22.2
			c1.7,5.8,2.6,11.8,2.6,17.8c0,39.8-39.2,74.6-72,96.7c-1.2,0.8-1.7,2.2-1.3,3.6c0.4,1.4,1.7,2.3,3.2,2.3h91.5
			c10.1-13,22-26.4,35.7-40.4C225.1,183.3,212,162.2,212,139.2z"/>
		<path opacity="0.25" fill="#D2E7F5" d="M62,192.6c17-7.8,34.4-16.5,54-25.5c6.8-9.2,10.4-18.5,10.4-27.9
			c0-17.6-12.4-32.5-25.7-43.6c-13.5,5.6-25.7,11-38.7,16.2V192.6z"/>
		<path opacity="0.25" fill="#D2E7F5" d="M185.4,136.6c9.3-3.9,18.7-7.8,28.2-11.5c7.7-33.9,41.5-63.1,70.4-82.6
			c1.2-0.8,1.7-2.5,1.3-3.9c-0.4-1.4-1.7-2.6-3.2-2.6H252c-32,13-66.1,25.5-99,38.5C170.7,92.4,184.5,113.7,185.4,136.6z"/>
		<path opacity="0.25" fill="#D2E7F5" d="M333.1,74.4c-0.6-0.4-1.2-0.5-2.2-0.5v-0.3c0,0.1,0.1,0.1,0,0.2c0,0-0.2,0.2-0.8,0.5
			c0,0,0,0,0,0l0,0c-0.1,0.1-0.3,0.1-0.4,0.2c-2.1,0.9-15.4,7.2-28.9,17.6c-1,0.8-2,1.6-3,2.4c12.6-4,24.2-7.7,37.2-11v-6.3
			C335,76.1,334.1,75,333.1,74.4z"/>
		<g opacity="0.5">
			<path fill="#01151C" d="M113.5,42.6c13.8,9.3,28.7,20.8,41.3,33.9c-12-14.7-27.3-27.8-42.2-38.6c-0.2,0.3-0.3,0.5-0.4,0.8
				C111.7,40.1,112.3,41.7,113.5,42.6z"/>
			<path fill="#01151C" d="M204.8,130.9c0,26.7,17.1,51.3,38.4,71.4C225.4,184,212,162.5,212,139.2c0-39.8,39.2-74.6,72-96.7
				c1.2-0.8,1.7-2.5,1.3-3.9c-0.4-1.4-1.7-2.6-3.2-2.6h-10.3C239.7,59,204.8,92.7,204.8,130.9z"/>
			<path fill="#01151C" d="M284,235.9c-1.2-0.8-2.3-1.6-3.5-2.4c0,0.4,0,0.7-0.1,1.1c-0.4,1.4-1.8,2.4-3.3,2.4H112.3
				c-0.3,1-0.4,1.6-0.2,2.5c0.4,1.4,1.7,2.5,3.2,2.5h166.9c1.5,0,2.7-1,3.2-2.3C285.8,238.2,285.2,236.7,284,235.9z"/>
		</g>
		<path opacity="0.5" fill="#01151C" d="M333.1,74.4c-0.6-0.4-1.2-0.5-2.2-0.5v-0.3c0,0.1,0.1,0.1,0,0.2c0,0-0.2,0.2-0.8,0.5
			c0,0,0,0,0,0l0,0c-0.1,0-0.2,0.1-0.2,0.1v117.6c0,1.1-0.5,2.2-1.5,2.8c-0.5,0.3-1.1,0.5-1.7,0.5c-0.5,0-1-0.1-1.5-0.4l-0.2-0.1
			c-1.8-0.8-34.8-15.8-50.7-39.6c12.3,29,53.6,47.8,55.6,48.7l0.2,0.1c0.5,0.2,1,0.4,1.5,0.4c0.6,0,1.2-0.2,1.7-0.5
			c1-0.6,1.5-1.7,1.5-2.8V77.3C335,76.1,334.1,75,333.1,74.4z"/>
		<path opacity="0.75" fill="#D2E7F5" d="M276.3,139.2c0-17.2,10.4-34.1,31.5-50.3c8.8-6.7,17.2-11.8,23.2-15v-0.3
			c0,0.1,0.1,0.1,0,0.2c0,0-0.2,0.2-0.8,0.5c0,0,0,0,0,0l0,0c-0.1,0.1-0.3,0.1-0.4,0.2c-2.1,0.9-15.4,7.2-28.9,17.6
			c-19.8,15.1-29.8,31-29.8,47.1c0,37.9,56.6,63.7,59.1,64.8l0.2,0.1c0.4,0.2,0.7,0.3,1.1,0.3C314.4,195.4,276.3,171.4,276.3,139.2z
			"/>
		<path opacity="0.75" fill="#D2E7F5" d="M122,230c35.7-22.2,73.8-54.4,73.8-90.8c0-36.5-38.2-68.7-73.9-90.9
			c30.8,22.2,63.6,54.4,63.6,90.9C185.5,175.7,152.8,207.9,122,230z"/>
		<path opacity="0.5" fill="#01151C" d="M105.7,99.6c9,9.7,15.9,21.4,15.9,34.6c0,16.1-10.4,32-30.2,47.1C77.5,192,64,198.3,62,199
			v2.2c0,1.1,0.8,2.2,1.8,2.8c0.5,0.3,1.2,0.5,1.8,0.5c0.5,0,1.1-0.1,1.5-0.3c0.1,0,0.2-0.1,0.3-0.2c0.6-0.3,14.8-6.7,29.2-17.7
			c19.8-15.1,29.9-31,29.9-47.1C126.5,123.7,117.1,110.2,105.7,99.6z"/>
		<path opacity="0.75" fill="#D2E7F5" d="M67,74.5c0,0,0.2,0,0.2-0.1c-0.1,0,0-0.1-0.1-0.1c-1-0.5-2.5-0.4-3.4,0.2
			c-1,0.6-1.7,1.7-1.7,2.8v123.9c0,1.1,0.8,2.2,1.8,2.8c0.5,0.3,1.2,0.5,1.8,0.5c0.5,0,1.1-0.1,1.5-0.3c0.1,0-0.1-0.1,0-0.2
			c0,0-0.2,0-0.2-0.1V74.5z"/>
	</g>
	<g>
		<g>
			<path fill="#00313E" d="M26.6,298.1c1.4-0.3,3-0.5,4.7-0.6c1.7-0.2,3.4-0.2,5.1-0.2c1.8,0,3.6,0.1,5.3,0.4
				c1.8,0.3,3.4,0.9,4.8,1.7c1.4,0.9,2.6,2.1,3.5,3.6c0.9,1.6,1.4,3.6,1.4,6.1c0,2.2-0.4,4.2-1.2,5.7c-0.8,1.6-1.8,2.8-3.1,3.8
				c-1.3,1-2.8,1.7-4.4,2.1c-1.7,0.4-3.4,0.7-5.1,0.7c-0.2,0-0.4,0-0.8,0c-0.4,0-0.8,0-1.2,0c-0.4,0-0.8,0-1.2-0.1
				c-0.4,0-0.7-0.1-0.8-0.1v12.3h-7V298.1z M37,303.2c-0.7,0-1.3,0-1.9,0.1c-0.6,0.1-1.1,0.1-1.5,0.2v11.6c0.1,0,0.3,0.1,0.6,0.1
				c0.3,0,0.6,0.1,0.9,0.1c0.3,0,0.6,0,0.9,0c0.3,0,0.5,0,0.6,0c0.9,0,1.8-0.1,2.7-0.3c0.9-0.2,1.7-0.5,2.4-0.9
				c0.7-0.5,1.3-1.1,1.7-1.9c0.4-0.8,0.6-1.9,0.6-3.2c0-1.1-0.2-2.1-0.6-2.8c-0.4-0.7-0.9-1.3-1.6-1.8c-0.7-0.4-1.4-0.7-2.3-0.9
				C38.8,303.3,37.9,303.2,37,303.2z"/>
			<path fill="#00313E" d="M55.8,298.1c0.8-0.1,1.6-0.3,2.5-0.4c0.9-0.1,1.8-0.2,2.7-0.3c0.9-0.1,1.8-0.1,2.6-0.2
				c0.9,0,1.6-0.1,2.4-0.1c1.7,0,3.3,0.2,4.9,0.5c1.6,0.3,3.1,0.8,4.3,1.6c1.3,0.7,2.3,1.8,3.1,3.1c0.8,1.3,1.2,3,1.2,4.9
				c0,2.9-0.7,5.3-2,7.2c-1.4,1.8-3.2,3.1-5.5,3.8l2.5,1.6l8.2,13.7h-8.1l-8.1-14l-3.7-0.7v14.7h-7V298.1z M66.6,303.4
				c-0.7,0-1.4,0-2.1,0.1c-0.7,0-1.2,0.1-1.6,0.2v10.4h3c1.9,0,3.5-0.4,4.7-1.3c1.2-0.9,1.7-2.4,1.7-4.4c0-1.5-0.5-2.7-1.4-3.6
				C69.8,303.9,68.4,303.4,66.6,303.4z"/>
			<path fill="#00313E" d="M83.8,315.6c0-6,1.3-10.6,3.9-13.8c2.6-3.2,6.4-4.8,11.3-4.8c2.6,0,4.8,0.4,6.7,1.3
				c1.9,0.9,3.5,2.1,4.8,3.8c1.3,1.6,2.2,3.6,2.8,5.9c0.6,2.3,0.9,4.8,0.9,7.6c0,6-1.3,10.6-4,13.8c-2.6,3.2-6.4,4.8-11.2,4.8
				c-2.6,0-4.8-0.4-6.8-1.3c-1.9-0.9-3.5-2.1-4.7-3.8c-1.2-1.6-2.2-3.6-2.8-5.9C84.1,321,83.8,318.4,83.8,315.6z M91.2,315.6
				c0,1.8,0.2,3.5,0.5,5c0.3,1.5,0.8,2.8,1.4,3.9c0.6,1.1,1.4,1.9,2.4,2.6c1,0.6,2.2,0.9,3.5,0.9c2.5,0,4.4-1,5.8-2.9
				c1.4-1.9,2-5.1,2-9.5c0-1.7-0.1-3.4-0.4-4.9c-0.3-1.5-0.7-2.8-1.4-3.9c-0.6-1.1-1.4-2-2.4-2.6c-1-0.6-2.2-0.9-3.6-0.9
				c-2.5,0-4.4,1-5.8,3C91.9,308.2,91.2,311.4,91.2,315.6z"/>
			<path fill="#00313E" d="M125.3,320.2l-11.8-22.5h8.3l6.5,13.4l0.7,3.8h0.3l0.8-3.9l6.3-13.3h7.5l-11.7,22.4v13.3h-7V320.2z"/>
			<path fill="#00313E" d="M147,297.7h21.2v6.2H154v8.3H167v6.2H154v8.7h14.5v6.2H147V297.7z"/>
			<path fill="#00313E" d="M198,332.1c-1.1,0.8-2.5,1.3-4.2,1.7c-1.7,0.3-3.4,0.5-5.2,0.5c-2.1,0-4.2-0.3-6.1-1
				c-1.9-0.7-3.6-1.7-5.1-3.2c-1.5-1.5-2.6-3.4-3.5-5.8c-0.9-2.4-1.3-5.2-1.3-8.6c0-3.5,0.5-6.5,1.5-8.8c1-2.4,2.2-4.3,3.8-5.7
				s3.3-2.5,5.2-3.1c1.9-0.6,3.8-0.9,5.7-0.9c2,0,3.8,0.1,5.2,0.4c1.4,0.3,2.6,0.6,3.5,1l-1.4,5.9c-0.8-0.4-1.7-0.6-2.8-0.8
				c-1.1-0.2-2.4-0.3-3.9-0.3c-2.8,0-5.1,1-6.8,3c-1.7,2-2.6,5.1-2.6,9.4c0,1.8,0.2,3.5,0.6,5c0.4,1.5,1,2.8,1.9,3.9
				c0.8,1.1,1.9,1.9,3.1,2.5c1.2,0.6,2.7,0.9,4.3,0.9c1.5,0,2.8-0.2,3.9-0.5c1.1-0.3,2-0.7,2.8-1.2L198,332.1z"/>
			<path fill="#00313E" d="M226.7,304h-10.4v29.6h-7V304h-10.5v-6.2h27.9V304z"/>
		</g>
		<g>
			<path fill="#4A7EB5" d="M62.3,343.9c0.6-0.1,1.2-0.2,1.9-0.3c0.7,0,1.4-0.1,2.1-0.1c0.7,0,1.5,0.1,2.2,0.2c0.8,0.1,1.4,0.4,2,0.8
				c0.6,0.4,1.1,0.9,1.5,1.6c0.4,0.7,0.6,1.5,0.6,2.5c0,1-0.2,1.9-0.5,2.6c-0.4,0.7-0.8,1.3-1.4,1.7c-0.6,0.4-1.3,0.7-2.1,0.9
				c-0.8,0.2-1.6,0.3-2.4,0.3c-0.1,0-0.2,0-0.4,0c-0.2,0-0.4,0-0.6,0c-0.2,0-0.4,0-0.6,0c-0.2,0-0.3,0-0.4,0v6.3h-2V343.9z
				 M66.4,345.2c-0.4,0-0.8,0-1.2,0c-0.4,0-0.7,0.1-0.9,0.1v6.9c0.1,0,0.2,0.1,0.4,0.1c0.2,0,0.4,0,0.5,0c0.2,0,0.4,0,0.5,0
				s0.3,0,0.4,0c0.5,0,1.1-0.1,1.6-0.2c0.5-0.1,1-0.3,1.4-0.6c0.4-0.3,0.8-0.6,1-1.1c0.3-0.5,0.4-1.1,0.4-1.9c0-0.6-0.1-1.2-0.4-1.6
				c-0.2-0.4-0.6-0.8-1-1c-0.4-0.3-0.9-0.4-1.4-0.6C67.4,345.3,66.9,345.2,66.4,345.2z"/>
			<path fill="#4A7EB5" d="M75.5,343.9c0.6-0.1,1.3-0.2,2.1-0.3c0.8-0.1,1.5-0.1,2.1-0.1c0.7,0,1.4,0.1,2.1,0.2
				c0.7,0.2,1.2,0.4,1.7,0.8c0.5,0.4,0.9,0.8,1.2,1.4s0.4,1.3,0.4,2.1c0,1.3-0.4,2.3-1.1,3.2c-0.7,0.8-1.6,1.3-2.7,1.6l1.1,0.9
				l4.1,6.6h-2.3l-4.6-7.2l-2.3-0.4v7.5h-2V343.9z M79.8,345.2c-0.2,0-0.4,0-0.6,0s-0.4,0-0.6,0s-0.4,0-0.6,0c-0.2,0-0.3,0-0.4,0.1
				v6.1h1.8c1.1,0,2-0.3,2.7-0.8c0.7-0.5,1.1-1.4,1.1-2.5c0-0.9-0.3-1.6-0.9-2.1S80.8,345.2,79.8,345.2z"/>
			<path fill="#4A7EB5" d="M87.9,352c0-2.8,0.6-4.9,1.8-6.4c1.2-1.5,2.8-2.2,5-2.2c1.2,0,2.2,0.2,3,0.6c0.9,0.4,1.6,1,2.1,1.7
				s1,1.7,1.2,2.7c0.3,1.1,0.4,2.2,0.4,3.5c0,2.8-0.6,4.9-1.8,6.4c-1.2,1.5-2.9,2.2-5,2.2c-1.2,0-2.2-0.2-3-0.6
				c-0.8-0.4-1.5-1-2.1-1.7c-0.6-0.8-1-1.6-1.2-2.7C88,354.5,87.9,353.3,87.9,352z M90,352c0,0.9,0.1,1.8,0.3,2.6
				c0.2,0.8,0.5,1.5,0.8,2.2c0.4,0.6,0.9,1.1,1.5,1.5c0.6,0.4,1.3,0.6,2.1,0.6c1.5,0,2.6-0.6,3.5-1.7c0.8-1.1,1.3-2.8,1.3-5.2
				c0-0.9-0.1-1.8-0.3-2.6c-0.2-0.8-0.5-1.6-0.9-2.2c-0.4-0.6-0.9-1.1-1.5-1.5c-0.6-0.4-1.3-0.6-2.1-0.6c-1.5,0-2.6,0.6-3.4,1.7
				C90.4,348,90,349.7,90,352z"/>
			<path fill="#4A7EB5" d="M104.8,343.7c0.3,0,0.6-0.1,1-0.1c0.4,0,0.8,0,1.2,0c0.4,0,0.8,0,1.2,0c0.4,0,0.7,0,1.1,0
				c1.3,0,2.5,0.2,3.4,0.6c1,0.4,1.8,1,2.4,1.7c0.6,0.7,1.1,1.6,1.4,2.6c0.3,1,0.5,2.2,0.5,3.4c0,1.1-0.1,2.2-0.4,3.2
				c-0.3,1-0.8,2-1.4,2.7c-0.6,0.8-1.5,1.4-2.5,1.9c-1,0.5-2.2,0.7-3.7,0.7c-0.3,0-0.6,0-1,0c-0.4,0-0.8,0-1.2,0
				c-0.4,0-0.8,0-1.2-0.1c-0.4,0-0.6,0-0.8-0.1V343.7z M109.3,345.3c-0.2,0-0.4,0-0.7,0s-0.5,0-0.7,0c-0.2,0-0.5,0-0.7,0
				c-0.2,0-0.4,0-0.5,0v13.3c0.1,0,0.2,0,0.4,0c0.2,0,0.4,0,0.7,0c0.2,0,0.5,0,0.7,0c0.2,0,0.4,0,0.4,0c1.1,0,2-0.2,2.8-0.6
				c0.8-0.4,1.3-0.9,1.8-1.5c0.5-0.6,0.8-1.4,1-2.2c0.2-0.8,0.3-1.7,0.3-2.6c0-0.8-0.1-1.6-0.3-2.3c-0.2-0.8-0.5-1.5-0.9-2.1
				c-0.4-0.6-1-1.1-1.7-1.6C111.3,345.5,110.4,345.3,109.3,345.3z"/>
			<path fill="#4A7EB5" d="M129.8,343.7h1.9v11.1c0,1-0.1,1.9-0.4,2.6c-0.3,0.7-0.6,1.3-1.1,1.8c-0.5,0.5-1.1,0.8-1.7,1
				c-0.7,0.2-1.4,0.3-2.3,0.3c-2,0-3.4-0.4-4.4-1.3c-1-0.9-1.5-2.2-1.5-4v-11.4h2v10.5c0,0.8,0.1,1.5,0.3,2.1c0.2,0.6,0.4,1,0.7,1.4
				c0.3,0.4,0.7,0.6,1.2,0.8c0.5,0.2,1.1,0.2,1.7,0.2c1.3,0,2.2-0.4,2.7-1.1c0.6-0.7,0.8-1.9,0.8-3.5V343.7z"/>
			<path fill="#4A7EB5" d="M146.3,359.6c-0.5,0.4-1.1,0.6-1.8,0.8c-0.7,0.1-1.5,0.2-2.3,0.2c-1,0-1.9-0.2-2.8-0.5
				c-0.9-0.3-1.6-0.9-2.3-1.6c-0.6-0.7-1.2-1.6-1.5-2.7c-0.4-1.1-0.6-2.4-0.6-3.8c0-1.5,0.2-2.9,0.6-3.9c0.4-1.1,1-2,1.7-2.7
				s1.5-1.2,2.3-1.5c0.9-0.3,1.7-0.5,2.6-0.5c0.9,0,1.7,0.1,2.3,0.2c0.6,0.1,1.1,0.2,1.5,0.4l-0.5,1.8c-0.8-0.4-1.8-0.6-3.2-0.6
				c-0.6,0-1.3,0.1-1.9,0.4s-1.2,0.6-1.7,1.2c-0.5,0.5-0.9,1.2-1.2,2.1c-0.3,0.9-0.4,1.9-0.4,3.2c0,1.1,0.1,2.1,0.4,3
				c0.3,0.9,0.7,1.6,1.2,2.1s1.1,1,1.8,1.3c0.7,0.3,1.4,0.4,2.2,0.4c0.7,0,1.3-0.1,1.9-0.2c0.5-0.1,1-0.3,1.3-0.5L146.3,359.6z"/>
			<path fill="#4A7EB5" d="M159.3,359.6c-0.5,0.4-1.1,0.6-1.8,0.8s-1.5,0.2-2.3,0.2c-1,0-1.9-0.2-2.8-0.5s-1.6-0.9-2.3-1.6
				c-0.6-0.7-1.2-1.6-1.5-2.7c-0.4-1.1-0.6-2.4-0.6-3.8c0-1.5,0.2-2.9,0.6-3.9c0.4-1.1,1-2,1.7-2.7c0.7-0.7,1.5-1.2,2.3-1.5
				c0.9-0.3,1.7-0.5,2.6-0.5c0.9,0,1.7,0.1,2.3,0.2c0.6,0.1,1.1,0.2,1.5,0.4l-0.5,1.8c-0.8-0.4-1.8-0.6-3.2-0.6
				c-0.6,0-1.3,0.1-1.9,0.4c-0.6,0.2-1.2,0.6-1.7,1.2c-0.5,0.5-0.9,1.2-1.2,2.1c-0.3,0.9-0.4,1.9-0.4,3.2c0,1.1,0.1,2.1,0.4,3
				c0.3,0.9,0.7,1.6,1.2,2.1c0.5,0.6,1.1,1,1.8,1.3c0.7,0.3,1.4,0.4,2.2,0.4c0.7,0,1.3-0.1,1.9-0.2s1-0.3,1.3-0.5L159.3,359.6z"/>
			<path fill="#4A7EB5" d="M162.6,343.7h2v16.6h-2V343.7z"/>
			<path fill="#4A7EB5" d="M168.4,352c0-2.8,0.6-4.9,1.8-6.4c1.2-1.5,2.8-2.2,5-2.2c1.2,0,2.2,0.2,3,0.6c0.9,0.4,1.6,1,2.1,1.7
				s1,1.7,1.2,2.7c0.3,1.1,0.4,2.2,0.4,3.5c0,2.8-0.6,4.9-1.8,6.4c-1.2,1.5-2.9,2.2-5,2.2c-1.2,0-2.2-0.2-3-0.6
				c-0.8-0.4-1.5-1-2.1-1.7c-0.6-0.8-1-1.6-1.2-2.7C168.5,354.5,168.4,353.3,168.4,352z M170.5,352c0,0.9,0.1,1.8,0.3,2.6
				c0.2,0.8,0.5,1.5,0.8,2.2c0.4,0.6,0.9,1.1,1.5,1.5c0.6,0.4,1.3,0.6,2.1,0.6c1.5,0,2.6-0.6,3.5-1.7c0.8-1.1,1.3-2.8,1.3-5.2
				c0-0.9-0.1-1.8-0.3-2.6c-0.2-0.8-0.5-1.6-0.9-2.2c-0.4-0.6-0.9-1.1-1.5-1.5c-0.6-0.4-1.3-0.6-2.1-0.6c-1.5,0-2.6,0.6-3.4,1.7
				C170.9,348,170.5,349.7,170.5,352z M176.9,339.7h2.7v0.5l-3.9,2.3h-1.6L176.9,339.7z"/>
			<path fill="#4A7EB5" d="M188.2,349.4L187,347h-0.1l0.2,2.4v10.8h-1.8v-16.8h1l7.9,11.1l1.2,2.3h0.1l-0.3-2.3v-10.8h1.8v16.8h-1
				L188.2,349.4z"/>
			<path fill="#4A7EB5" d="M207.5,343.7c0.3,0,0.6-0.1,1-0.1c0.4,0,0.8,0,1.2,0c0.4,0,0.8,0,1.2,0c0.4,0,0.7,0,1.1,0
				c1.3,0,2.5,0.2,3.4,0.6c1,0.4,1.8,1,2.4,1.7c0.6,0.7,1.1,1.6,1.4,2.6s0.5,2.2,0.5,3.4c0,1.1-0.1,2.2-0.4,3.2
				c-0.3,1-0.8,2-1.4,2.7c-0.6,0.8-1.5,1.4-2.5,1.9c-1,0.5-2.2,0.7-3.7,0.7c-0.3,0-0.6,0-1,0c-0.4,0-0.8,0-1.2,0s-0.8,0-1.2-0.1
				c-0.4,0-0.6,0-0.8-0.1V343.7z M212,345.3c-0.2,0-0.4,0-0.7,0c-0.2,0-0.5,0-0.7,0c-0.2,0-0.5,0-0.7,0c-0.2,0-0.4,0-0.5,0v13.3
				c0.1,0,0.2,0,0.4,0c0.2,0,0.4,0,0.7,0c0.2,0,0.5,0,0.7,0c0.2,0,0.4,0,0.4,0c1.1,0,2-0.2,2.8-0.6c0.8-0.4,1.4-0.9,1.8-1.5
				c0.4-0.6,0.8-1.4,1-2.2c0.2-0.8,0.3-1.7,0.3-2.6c0-0.8-0.1-1.6-0.3-2.3c-0.2-0.8-0.5-1.5-0.9-2.1c-0.4-0.6-1-1.1-1.7-1.6
				S213.1,345.3,212,345.3z"/>
			<path fill="#4A7EB5" d="M223,343.7h9v1.8H225v5.4h6.5v1.8H225v5.9h7.2v1.8H223V343.7z"/>
			<path fill="#4A7EB5" d="M242,343.7h9v1.8H244v5.4h6.5v1.8H244v5.9h7.2v1.8H242V343.7z"/>
			<path fill="#4A7EB5" d="M259,355.1l0.6,2.5h0l0.6-2.6l4-11.3h2l-6.3,16.8h-0.9l-6.4-16.8h2.2L259,355.1z"/>
			<path fill="#4A7EB5" d="M268.2,343.7h9v1.8h-7.1v5.4h6.5v1.8h-6.5v5.9h7.2v1.8h-9.1V343.7z"/>
			<path fill="#4A7EB5" d="M283.9,349.4l-1.3-2.4h-0.1l0.2,2.4v10.8h-1.8v-16.8h1l7.9,11.1l1.2,2.3h0.1l-0.3-2.3v-10.8h1.8v16.8h-1
				L283.9,349.4z"/>
			<path fill="#4A7EB5" d="M307.5,345.5h-5.2v14.8h-2v-14.8h-5.2v-1.8h12.3V345.5z"/>
			<path fill="#4A7EB5" d="M308.1,352c0-2.8,0.6-4.9,1.8-6.4c1.2-1.5,2.8-2.2,5-2.2c1.2,0,2.2,0.2,3,0.6c0.9,0.4,1.6,1,2.1,1.7
				s1,1.7,1.2,2.7c0.3,1.1,0.4,2.2,0.4,3.5c0,2.8-0.6,4.9-1.8,6.4c-1.2,1.5-2.9,2.2-5,2.2c-1.2,0-2.2-0.2-3-0.6
				c-0.8-0.4-1.5-1-2.1-1.7s-1-1.6-1.2-2.7C308.3,354.5,308.1,353.3,308.1,352z M310.2,352c0,0.9,0.1,1.8,0.3,2.6
				c0.2,0.8,0.5,1.5,0.8,2.2c0.4,0.6,0.9,1.1,1.5,1.5c0.6,0.4,1.3,0.6,2.1,0.6c1.5,0,2.6-0.6,3.5-1.7c0.8-1.1,1.3-2.8,1.3-5.2
				c0-0.9-0.1-1.8-0.3-2.6c-0.2-0.8-0.5-1.6-0.9-2.2s-0.9-1.1-1.5-1.5c-0.6-0.4-1.3-0.6-2.1-0.6c-1.5,0-2.6,0.6-3.4,1.7
				C310.6,348,310.2,349.7,310.2,352z"/>
			<path fill="#4A7EB5" d="M332.5,356.1c0-0.7-0.2-1.2-0.6-1.6c-0.4-0.4-0.9-0.8-1.5-1.1c-0.6-0.3-1.2-0.6-1.9-0.9
				c-0.7-0.3-1.3-0.6-1.9-1c-0.6-0.4-1.1-0.9-1.5-1.5c-0.4-0.6-0.6-1.3-0.6-2.3c0-1.3,0.4-2.3,1.3-3.1c0.9-0.8,2.2-1.1,3.8-1.1
				c1,0,1.8,0.1,2.6,0.2c0.8,0.1,1.4,0.3,1.8,0.5l-0.6,1.8c-0.4-0.2-0.9-0.3-1.6-0.5c-0.7-0.2-1.5-0.2-2.4-0.2c-1,0-1.8,0.2-2.3,0.7
				c-0.5,0.5-0.8,1-0.8,1.6c0,0.6,0.2,1.1,0.6,1.5c0.4,0.4,0.9,0.8,1.5,1.1c0.6,0.3,1.2,0.6,1.9,1c0.7,0.3,1.3,0.7,1.9,1.1
				s1.1,0.9,1.5,1.5c0.4,0.6,0.6,1.3,0.6,2.2c0,0.7-0.1,1.4-0.4,1.9s-0.6,1.1-1.1,1.5c-0.5,0.4-1.1,0.7-1.8,0.9
				c-0.7,0.2-1.5,0.3-2.4,0.3c-1.2,0-2.2-0.1-2.9-0.3c-0.8-0.2-1.4-0.4-1.8-0.6l0.7-1.8c0.4,0.2,0.9,0.4,1.6,0.6
				c0.7,0.2,1.5,0.3,2.4,0.3c0.5,0,1-0.1,1.5-0.2c0.5-0.1,0.9-0.3,1.2-0.5c0.3-0.2,0.6-0.5,0.8-0.9S332.5,356.5,332.5,356.1z"/>
		</g>
		<g>
			<path fill="#4A7EB5" d="M237.9,333.5h-11.4V332c1.2-0.5,2.5-1,3.7-1.2l12.9-33.7h1.5l12.9,33.7c0.7,0.1,1.4,0.3,2,0.5
				c0.7,0.2,1.3,0.4,1.9,0.8v1.5h-13.2V332c0.7-0.3,1.4-0.5,2.1-0.7c0.7-0.2,1.4-0.4,2.1-0.5l-3.5-9.4h-12.2l-3.4,9.4
				c1.4,0.2,2.9,0.6,4.4,1.2V333.5z M237.9,318.8h10.3l-4-10.8l-1-4.4h-0.1l-1.3,4.5L237.9,318.8z"/>
			<path fill="#4A7EB5" d="M286.4,297.7h11v1.5c-1.4,1-2.8,1.6-4.2,2v32.9h-2.9L271.8,306l-2-4h-0.2l0.5,4v24.3
				c1.4,0.4,2.7,1,3.9,1.8v1.5h-11V332c0.6-0.4,1.3-0.7,2-1c0.7-0.3,1.4-0.6,2.2-0.8v-29.3c-0.7-0.3-1.4-0.6-2-0.9
				c-0.7-0.3-1.3-0.6-1.9-0.9v-1.4h8.6L288,322l2.4,4.4h0.2l-0.3-4.4v-20.8c-0.7-0.3-1.4-0.6-2.1-1c-0.7-0.3-1.3-0.7-1.9-1.1V297.7z
				"/>
			<path fill="#4A7EB5" d="M300.4,333.5V332c1.2-0.5,2.6-1,4.2-1.2v-30.3c-0.8-0.2-1.5-0.4-2.2-0.6c-0.7-0.2-1.4-0.5-1.9-0.7v-1.5
				h5.2c0.6,0,1.3,0,2-0.1c0.8,0,1.6-0.1,2.4-0.1c0.8-0.1,1.6-0.1,2.4-0.2c0.8-0.1,1.4-0.1,1.9-0.1c5.8,0,10.3,1.6,13.4,4.7
				c3.1,3.1,4.7,7.5,4.7,13.2c0,2.7-0.4,5.2-1.2,7.5c-0.8,2.3-1.9,4.3-3.5,6c-1.6,1.7-3.6,3-6,3.9c-2.4,1-5.2,1.4-8.5,1.4
				c-0.5,0-1.1,0-1.7-0.1c-0.6-0.1-1.3-0.1-2-0.2c-0.7-0.1-1.4-0.1-2.2-0.2c-0.7-0.1-1.4-0.1-2.1-0.1H300.4z M313.7,300
				c-0.9,0-1.7,0-2.6,0c-0.8,0-1.5,0.1-1.9,0.2v31c0.2,0,0.5,0.1,0.9,0.1c0.4,0,0.9,0,1.4,0.1c0.5,0,1,0,1.5,0c0.5,0,0.8,0,1,0
				c2.4,0,4.3-0.4,6-1.3c1.6-0.9,3-2.1,4-3.6c1-1.5,1.8-3.2,2.3-5.1c0.5-1.9,0.7-4,0.7-6.1c0-1.7-0.2-3.4-0.7-5.2
				c-0.5-1.8-1.2-3.4-2.2-4.9c-1-1.5-2.4-2.7-4.1-3.7C318.2,300.5,316.2,300,313.7,300z"/>
			<path fill="#4A7EB5" d="M337.8,315.6c0-2.7,0.4-5.1,1.1-7.4c0.7-2.3,1.8-4.2,3.2-5.9c1.4-1.7,3.1-2.9,5.1-3.9
				c2-0.9,4.3-1.4,6.9-1.4c2.6,0,4.8,0.5,6.9,1.4c2,0.9,3.7,2.2,5.1,3.9c1.4,1.7,2.4,3.6,3.2,5.9c0.7,2.3,1.1,4.7,1.1,7.4
				c0,2.7-0.4,5.1-1.1,7.4c-0.7,2.3-1.8,4.2-3.2,5.9c-1.4,1.7-3.1,2.9-5.1,3.9c-2,0.9-4.3,1.4-6.9,1.4c-2.6,0-4.8-0.5-6.9-1.4
				c-2-0.9-3.7-2.2-5.1-3.9c-1.4-1.7-2.4-3.6-3.2-5.9C338.2,320.7,337.8,318.3,337.8,315.6z M343.3,315.6c0,2.2,0.2,4.2,0.7,6.2
				c0.5,1.9,1.2,3.6,2.1,5c0.9,1.4,2.1,2.6,3.5,3.4c1.4,0.8,3.1,1.3,5,1.3c1.7,0,3.3-0.4,4.6-1.3c1.3-0.8,2.4-2,3.2-3.4
				c0.8-1.4,1.5-3.1,1.9-5c0.4-1.9,0.6-4,0.6-6.2c0-2.2-0.2-4.2-0.7-6.2c-0.4-1.9-1.1-3.6-2-5c-0.9-1.4-2.1-2.6-3.5-3.4
				c-1.4-0.8-3.1-1.3-5-1.3c-1.9,0-3.5,0.4-4.8,1.3c-1.3,0.8-2.4,2-3.2,3.4c-0.8,1.4-1.4,3.1-1.8,5
				C343.5,311.4,343.3,313.4,343.3,315.6z"/>
		</g>
	</g>
</g>
</svg>
