<?xml version="1.0" encoding="UTF-8" standalone="no"?>
<svg width="220px" height="110px" viewBox="0 0 220 110" version="1.1" xmlns="http://www.w3.org/2000/svg" xmlns:xlink="http://www.w3.org/1999/xlink" xmlns:sketch="http://www.bohemiancoding.com/sketch/ns">
    <!-- Generator: Sketch 3.0 (7574) - http://www.bohemiancoding.com/sketch -->
    <title>icons_c</title>
    <description>Created with Sketch.</description>
    <defs></defs>
    <g id="Home" stroke="none" stroke-width="1" fill="none" fill-rule="evenodd" sketch:type="MSPage">
        <g id="icons_c" sketch:type="MSArtboardGroup">
            <path d="M35,38.5123816 C35,43.2050255 31.2050255,47 26.5123816,47 C21.7949745,47 18,43.2050255 18,38.5123816 C18,33.8197378 21.7949745,30 26.5123816,30 C31.2050255,30 35,33.8197378 35,38.5123816 L35,38.5123816 Z M75,38.5123816 C75,43.2050255 78.7949745,47 83.4876184,47 C88.2050255,47 92,43.2050255 92,38.5123816 C92,33.8197378 88.2050255,30 83.4876184,30 C78.7949745,30 75,33.8197378 75,38.5123816 L75,38.5123816 Z M50.2365747,68.2547771 C50.0341074,66.388535 50.7721335,64.6687898 52,63.4267516 C44.4238026,62.0063694 41.308418,58.4012739 38.6044993,55.1146497 C37.2786647,53.522293 36.0246734,52.0063694 34.3657475,50.9363057 C34.320029,50.8853503 34.2416546,50.8853503 34.2155298,50.8598726 C32.7851959,49.7197452 31.0021771,49 29.0101597,49 L24.1640058,49 C19.670537,49 16,52.5541401 16,56.9363057 L16,79 L37.1741655,79 L37.1741655,64.7452229 C40.2634253,67.3821656 44.6523948,69.8980892 51.3599419,70.9936306 C50.7982583,70.1974522 50.341074,69.2993631 50.2365747,68.2547771 L50.2365747,68.2547771 Z M85.9942398,49 L81.2420205,49 C79.3142335,49 77.540157,49.7197452 76.1631663,50.8598726 C76.1119294,50.8853503 76.0350741,50.8853503 76.0094557,50.9363057 C74.3890898,52.0063694 73.1337866,53.522293 71.8336512,55.1146497 C68.9323637,58.7006369 65.6275859,62.8025478 56.3985455,63.8280255 C54.297834,64.0509554 52.7927511,65.9171975 53.023317,68.0063694 C53.2474783,69.9490446 54.8998672,71.388535 56.8212496,71.388535 C56.9493418,71.388535 57.0966478,71.3630573 57.2503584,71.3630573 C65.0511711,70.4968153 69.9058641,67.7324841 73.2362603,64.7961783 L73.2362603,79 L94,79 L94,56.9363057 C94,52.5541401 90.4006102,49 85.9942398,49 L85.9942398,49 Z" id="Imported-Layers" fill="#979797" sketch:type="MSShapeGroup"></path>
            <path d="M145,38.5123816 C145,43.2050255 141.205025,47 136.512382,47 C131.794975,47 128,43.2050255 128,38.5123816 C128,33.8197378 131.794975,30 136.512382,30 C141.205025,30 145,33.8197378 145,38.5123816 L145,38.5123816 Z M185,38.5123816 C185,43.2050255 188.794975,47 193.487618,47 C198.205025,47 202,43.2050255 202,38.5123816 C202,33.8197378 198.205025,30 193.487618,30 C188.794975,30 185,33.8197378 185,38.5123816 L185,38.5123816 Z M160.236575,68.2547771 C160.034107,66.388535 160.772134,64.6687898 162,63.4267516 C154.423803,62.0063694 151.308418,58.4012739 148.604499,55.1146497 C147.278665,53.522293 146.024673,52.0063694 144.365747,50.9363057 C144.320029,50.8853503 144.241655,50.8853503 144.21553,50.8598726 C142.785196,49.7197452 141.002177,49 139.01016,49 L134.164006,49 C129.670537,49 126,52.5541401 126,56.9363057 L126,79 L147.174165,79 L147.174165,64.7452229 C150.263425,67.3821656 154.652395,69.8980892 161.359942,70.9936306 C160.798258,70.1974522 160.341074,69.2993631 160.236575,68.2547771 L160.236575,68.2547771 Z M195.99424,49 L191.242021,49 C189.314233,49 187.540157,49.7197452 186.163166,50.8598726 C186.111929,50.8853503 186.035074,50.8853503 186.009456,50.9363057 C184.38909,52.0063694 183.133787,53.522293 181.833651,55.1146497 C178.932364,58.7006369 175.627586,62.8025478 166.398546,63.8280255 C164.297834,64.0509554 162.792751,65.9171975 163.023317,68.0063694 C163.247478,69.9490446 164.899867,71.388535 166.82125,71.388535 C166.949342,71.388535 167.096648,71.3630573 167.250358,71.3630573 C175.051171,70.4968153 179.905864,67.7324841 183.23626,64.7961783 L183.23626,79 L204,79 L204,56.9363057 C204,52.5541401 200.40061,49 195.99424,49 L195.99424,49 Z" id="Imported-Layers-2" fill="#368CCC" sketch:type="MSShapeGroup"></path>
        </g>
    </g>
</svg>