<?xml version="1.0" encoding="UTF-8" standalone="no"?>
<svg width="220px" height="110px" viewBox="0 0 220 110" version="1.1" xmlns="http://www.w3.org/2000/svg" xmlns:xlink="http://www.w3.org/1999/xlink" xmlns:sketch="http://www.bohemiancoding.com/sketch/ns">
    <!-- Generator: Sketch 3.0 (7574) - http://www.bohemiancoding.com/sketch -->
    <title>icons_a</title>
    <description>Created with Sketch.</description>
    <defs></defs>
    <g id="Home" stroke="none" stroke-width="1" fill="none" fill-rule="evenodd" sketch:type="MSPage">
        <g id="icons_a" sketch:type="MSArtboardGroup">
            <g id="Imported-Layers-2" sketch:type="MSLayerGroup" transform="translate(18.000000, 30.000000)" fill="#979797">
                <path d="M55,32.7337966 C55,27.9271025 49.3871433,21.430719 41.8112477,19.5337541 C44.9776108,17.4321373 47.1558136,13.2813785 47.1558136,9.54254716 C47.1558136,4.2740746 42.8392532,0 37.4946873,0 C32.1607468,0 27.833561,4.2740746 27.833561,9.54254716 C27.833561,13.2813785 30.0144202,17.4321373 33.1781269,19.5337541 C25.6128567,21.430719 20,27.9271025 20,32.7337966 C20,38.4220678 55,38.4220678 55,32.7337966 L55,32.7337966 Z M37.2009751,21.8693787 L37.1576381,21.8693787 L35.5297941,20 C36.323402,20.2863499 37.1386782,20.4538376 37.9945829,20.4538376 C38.8531961,20.4538376 39.676598,20.2863499 40.4593716,20 L38.8315276,21.8693787 L38.7881907,21.8693787 L43,32.0212935 L37.9945829,37 L33,32.0212935 L37.2009751,21.8693787 L37.2009751,21.8693787 Z" id="Fill-1" sketch:type="MSShapeGroup"></path>
                <path d="M64.3796535,37 L71.8713033,44.3563292 L3.12869668,44.3563292 L10.6307842,37 L0,44.3563292 L0,50 L75,50 L75,44.3563292 L64.3796535,37 L64.3796535,37 Z" id="Fill-2" sketch:type="MSShapeGroup"></path>
                <path d="M52,42 L65,42 L60.3318422,38 L52.5973973,38 L52,42 L52,42 Z" id="Fill-3" sketch:type="MSShapeGroup"></path>
            </g>
            <g id="Imported-Layers-3" sketch:type="MSLayerGroup" transform="translate(128.000000, 30.000000)" fill="#368CCC">
                <path d="M55,32.7337966 C55,27.9271025 49.3871433,21.430719 41.8112477,19.5337541 C44.9776108,17.4321373 47.1558136,13.2813785 47.1558136,9.54254716 C47.1558136,4.2740746 42.8392532,0 37.4946873,0 C32.1607468,0 27.833561,4.2740746 27.833561,9.54254716 C27.833561,13.2813785 30.0144202,17.4321373 33.1781269,19.5337541 C25.6128567,21.430719 20,27.9271025 20,32.7337966 C20,38.4220678 55,38.4220678 55,32.7337966 L55,32.7337966 Z M37.2009751,21.8693787 L37.1576381,21.8693787 L35.5297941,20 C36.323402,20.2863499 37.1386782,20.4538376 37.9945829,20.4538376 C38.8531961,20.4538376 39.676598,20.2863499 40.4593716,20 L38.8315276,21.8693787 L38.7881907,21.8693787 L43,32.0212935 L37.9945829,37 L33,32.0212935 L37.2009751,21.8693787 L37.2009751,21.8693787 Z" id="Fill-1" sketch:type="MSShapeGroup"></path>
                <path d="M64.3796535,37 L71.8713033,44.3563292 L3.12869668,44.3563292 L10.6307842,37 L0,44.3563292 L0,50 L75,50 L75,44.3563292 L64.3796535,37 L64.3796535,37 Z" id="Fill-2" sketch:type="MSShapeGroup"></path>
                <path d="M52,42 L65,42 L60.3318422,38 L52.5973973,38 L52,42 L52,42 Z" id="Fill-3" sketch:type="MSShapeGroup"></path>
            </g>
        </g>
    </g>
</svg>