<?xml version="1.0" encoding="UTF-8" standalone="no"?>
<svg width="220px" height="110px" viewBox="0 0 220 110" version="1.1" xmlns="http://www.w3.org/2000/svg" xmlns:xlink="http://www.w3.org/1999/xlink" xmlns:sketch="http://www.bohemiancoding.com/sketch/ns">
    <!-- Generator: Sketch 3.0 (7574) - http://www.bohemiancoding.com/sketch -->
    <title>icons_d</title>
    <description>Created with Sketch.</description>
    <defs></defs>
    <g id="Home" stroke="none" stroke-width="1" fill="none" fill-rule="evenodd" sketch:type="MSPage">
        <g id="icons_d" sketch:type="MSArtboardGroup">
            <path d="M75.1721721,45.8698449 C74.6633588,33.6897517 65.6156142,24 54.5065232,24 C43.3843858,24 34.3496877,33.6897517 33.8278279,45.856755 C32.197016,46.2919921 31,47.7613263 31,49.5251818 L31,58.9989512 C31,61.1064149 32.6960444,62.8080937 34.7965302,62.8080937 C36.9002776,62.8080937 38.5930604,61.1064149 38.5930604,58.9989512 L38.5930604,58.2691928 C40.3902151,66.6565057 44.7477446,77.5079805 54.5065232,77.5079805 C64.2522554,77.5079805 68.6097849,66.6695956 70.4069396,58.2822826 L70.4069396,58.9989512 C70.4069396,60.6875401 71.4897988,62.0914251 72.9934074,62.5921114 C72.892297,64.5195899 71.8453158,74.6576685 61.9723803,78.8889582 C61.3624566,78.5060805 60.595975,78.3653648 59.858848,78.6467963 L55.514365,80.2568462 C54.2521166,80.7313528 53.6160999,82.1352378 54.0727273,83.4016795 C54.5456627,84.6681212 55.9448994,85.3193406 57.2071478,84.844834 L61.5516308,83.2347841 C62.5072866,82.8911758 63.1074254,82.0076119 63.1433033,81.0618711 C74.2034698,76.1531823 75.3515614,64.4312335 75.4526718,62.5790216 C76.9301874,62.0652455 78,60.6613605 78,58.9989512 L78,49.5251818 C78,47.7744161 76.7899375,46.2919921 75.1721721,45.8698449 L75.1721721,45.8698449 Z M55,32.1444992 C46.3148688,32.1444992 39.1516035,39.0574713 38.0364431,48 C37.7412536,47.6650246 37.3837464,47.3825944 37,47.1658456 C37.3575073,36.5188834 45.2620262,28 55,28 C64.7248542,28 72.6293732,36.5188834 73,47.1658456 C72.6031341,47.3825944 72.2587464,47.6650246 71.9504373,48 C70.835277,39.0574713 63.6851312,32.1444992 55,32.1444992 L55,32.1444992 Z" id="Imported-Layers" fill="#979797" sketch:type="MSShapeGroup"></path>
            <path d="M185.172172,45.8698449 C184.663359,33.6897517 175.615614,24 164.506523,24 C153.384386,24 144.349688,33.6897517 143.827828,45.856755 C142.197016,46.2919921 141,47.7613263 141,49.5251818 L141,58.9989512 C141,61.1064149 142.696044,62.8080937 144.79653,62.8080937 C146.900278,62.8080937 148.59306,61.1064149 148.59306,58.9989512 L148.59306,58.2691928 C150.390215,66.6565057 154.747745,77.5079805 164.506523,77.5079805 C174.252255,77.5079805 178.609785,66.6695956 180.40694,58.2822826 L180.40694,58.9989512 C180.40694,60.6875401 181.489799,62.0914251 182.993407,62.5921114 C182.892297,64.5195899 181.845316,74.6576685 171.97238,78.8889582 C171.362457,78.5060805 170.595975,78.3653648 169.858848,78.6467963 L165.514365,80.2568462 C164.252117,80.7313528 163.6161,82.1352378 164.072727,83.4016795 C164.545663,84.6681212 165.944899,85.3193406 167.207148,84.844834 L171.551631,83.2347841 C172.507287,82.8911758 173.107425,82.0076119 173.143303,81.0618711 C184.20347,76.1531823 185.351561,64.4312335 185.452672,62.5790216 C186.930187,62.0652455 188,60.6613605 188,58.9989512 L188,49.5251818 C188,47.7744161 186.789938,46.2919921 185.172172,45.8698449 L185.172172,45.8698449 Z M165,32.1444992 C156.314869,32.1444992 149.151603,39.0574713 148.036443,48 C147.741254,47.6650246 147.383746,47.3825944 147,47.1658456 C147.357507,36.5188834 155.262026,28 165,28 C174.724854,28 182.629373,36.5188834 183,47.1658456 C182.603134,47.3825944 182.258746,47.6650246 181.950437,48 C180.835277,39.0574713 173.685131,32.1444992 165,32.1444992 L165,32.1444992 Z" id="Imported-Layers-2" fill="#368CCC" sketch:type="MSShapeGroup"></path>
        </g>
    </g>
</svg>