<?xml version="1.0" encoding="UTF-8" standalone="no"?>
<svg width="220px" height="110px" viewBox="0 0 220 110" version="1.1" xmlns="http://www.w3.org/2000/svg" xmlns:xlink="http://www.w3.org/1999/xlink" xmlns:sketch="http://www.bohemiancoding.com/sketch/ns">
    <!-- Generator: Sketch 3.0 (7574) - http://www.bohemiancoding.com/sketch -->
    <title>icons_b</title>
    <description>Created with Sketch.</description>
    <defs></defs>
    <g id="Home" stroke="none" stroke-width="1" fill="none" fill-rule="evenodd" sketch:type="MSPage">
        <g id="icons_b" sketch:type="MSArtboardGroup">
            <path d="M79,31.3066862 L56.5784575,31.3066862 L56.5784575,29 L50.8766159,29 L50.8766159,31.3066862 L29,31.3066862 L29,34.0869962 L30.4518118,34.0869962 L30.4518118,61.4977211 L51.4752396,61.4977211 L51.4752396,66.6065158 L39.8687005,79 L44.039179,79 L51.8710075,70.6233998 L51.8710075,79 L54.2714689,79 L54.2714689,70.6313265 L62.0873871,79 L66.3215067,79 L54.6592817,66.6065158 L54.6592817,61.4977211 L78.0831709,61.4977211 L78.0831709,34.0869962 L79,34.0869962 L79,31.3066862 L79,31.3066862 Z M32,35 L76,35 L76,60 L32,60 L32,35 Z" id="Imported-Layers" fill="#979797" sketch:type="MSShapeGroup"></path>
            <path d="M189,31.3066862 L166.578457,31.3066862 L166.578457,29 L160.876616,29 L160.876616,31.3066862 L139,31.3066862 L139,34.0869962 L140.451812,34.0869962 L140.451812,61.4977211 L161.47524,61.4977211 L161.47524,66.6065158 L149.868701,79 L154.039179,79 L161.871008,70.6233998 L161.871008,79 L164.271469,79 L164.271469,70.6313265 L172.087387,79 L176.321507,79 L164.659282,66.6065158 L164.659282,61.4977211 L188.083171,61.4977211 L188.083171,34.0869962 L189,34.0869962 L189,31.3066862 L189,31.3066862 Z M142,35 L186,35 L186,60 L142,60 L142,35 Z" id="Imported-Layers-2" fill="#368CCC" sketch:type="MSShapeGroup"></path>
        </g>
    </g>
</svg>